<?xml version="1.0" standalone="no"?><!DOCTYPE svg PUBLIC "-//W3C//DTD SVG 1.1//EN" "http://www.w3.org/Graphics/SVG/1.1/DTD/svg11.dtd"><svg t="1576208144454" class="icon" viewBox="0 0 1024 1024" version="1.1" xmlns="http://www.w3.org/2000/svg" p-id="719" xmlns:xlink="http://www.w3.org/1999/xlink" width="200" height="200"><defs><style type="text/css"></style></defs><path d="M702.122667 307.541333h40.618666V320.853333h-40.618666zM300.032 233.472h-16.042667v13.653333h29.696zM593.578667 307.541333h40.618666V320.853333h-40.618666zM647.850667 307.541333h40.618666V320.853333h-40.618666zM575.829333 307.541333l4.096 4.096v-4.096zM232.106667 233.472h38.570666v13.312H232.106667zM232.106667 249.173333h13.653333v40.277334h-13.653333zM322.56 307.541333h40.618667V320.853333H322.56zM245.76 303.104h-13.653333V320.853333h22.528v-13.312H245.76v-4.437333zM515.072 247.125333h26.624v-13.653333h-40.277333zM555.008 233.472h40.618667v13.312h-40.618667zM376.832 309.589333V320.853333h11.264zM268.288 307.541333h40.618667V320.853333H268.288zM663.552 233.472h40.618667v13.312h-40.618667zM812.714667 282.965333h-13.653334V320.853333h13.653334zM799.061333 269.312h13.653334V233.472h-40.618667v13.653333h26.965333zM717.824 233.472h40.618667v13.312h-40.618667zM756.053333 307.541333h40.618667V320.853333h-40.618667zM609.28 233.472h40.618667v13.312h-40.618667zM485.034667 153.6H525.653333v13.312h-40.618666zM471.722667 153.6h-40.96v9.898667l3.754666 3.754666h37.205334zM539.306667 153.6h40.618666v13.312H539.306667zM593.578667 153.6h40.618666v13.312h-40.618666zM647.850667 153.6h40.618666v13.312h-40.618666zM702.122667 153.6h40.618666v13.312h-40.618666zM555.008 79.872h40.618667v13.312h-40.618667zM446.805333 79.872h40.618667v13.312h-40.618667zM392.533333 79.872h40.618667v13.312H392.533333zM359.765333 93.184h19.114667v-13.312h-32.426667zM756.053333 153.6h40.618667v13.312h-40.618667zM501.077333 79.872h40.618667v13.312h-40.618667zM799.061333 115.712h13.653334V79.872h-40.618667v13.312h26.965333zM812.714667 129.024h-13.653334V167.253333h13.653334zM609.28 79.872h40.618667v13.312h-40.618667zM663.552 79.872h40.618667v13.312h-40.618667zM717.824 79.872h40.618667v13.312h-40.618667zM731.136 461.482667l11.605333 11.264v-11.264zM455.338667 387.413333h-8.533334v13.312h21.845334zM232.106667 387.413333h38.570666v13.312H232.106667zM392.533333 387.413333h40.618667v13.312H392.533333zM338.261333 387.413333H378.88v13.312H338.261333zM283.989333 387.413333h40.618667v13.312H283.989333zM232.106667 403.114667h13.653333v40.277333h-13.653333zM670.037333 400.725333h34.133334v-13.312h-40.618667v6.826667zM376.832 461.482667h40.618667v13.312h-40.618667zM430.762667 461.482667h40.618666v13.312h-40.618666zM322.56 461.482667h40.618667v13.312H322.56zM539.306667 470.698667v4.096h4.096zM485.034667 461.482667H525.653333v13.312h-40.618666zM268.288 461.482667h40.618667v13.312H268.288zM799.061333 423.253333h13.653334v-35.84h-40.618667v13.312h26.965333zM756.053333 461.482667h40.618667v13.312h-40.618667zM812.714667 436.565333h-13.653334v38.229334h13.653334zM245.76 456.704h-13.653333v18.090667h22.528v-13.312H245.76v-4.778667zM717.824 387.413333h40.618667v13.312h-40.618667zM232.106667 557.056h13.653333V597.333333h-13.653333zM232.106667 541.354667h38.570666v13.312H232.106667zM610.304 541.354667h-1.024v13.312h14.677333zM392.533333 541.354667h40.618667v13.312H392.533333zM555.008 541.354667h40.618667v13.312h-40.618667zM283.989333 541.354667h40.618667v13.312H283.989333zM501.077333 541.354667h40.618667v13.312h-40.618667zM338.261333 541.354667H378.88v13.312H338.261333zM446.805333 541.354667h40.618667v13.312h-40.618667zM539.306667 615.082667h40.618666v13.312H539.306667zM485.034667 615.082667H525.653333v13.312h-40.618666zM685.056 615.082667h-37.205333v13.653333h40.618666v-10.24zM593.578667 615.082667h40.618666v13.312h-40.618666zM430.762667 615.082667h40.618666v13.312h-40.618666zM376.832 615.082667h40.618667v13.312h-40.618667zM245.76 610.645333h-13.653333v18.090667h22.528v-13.312H245.76v-4.778667zM812.714667 542.378667v-1.024h-1.024zM268.288 615.082667h40.618667v13.312H268.288zM322.56 615.082667h40.618667v13.312H322.56zM843.776 698.709333L174.762667 35.498667 201.386667 9.557333l668.672 663.210667z" p-id="720" fill="#8a8a8a"></path><path d="M51.2 890.88h20.821333v-12.288h11.946667v12.288h27.306667v9.898667h-27.306667v12.629333c9.557333-0.682667 18.432-1.024 26.624-1.706667-0.341333 3.754667-0.682667 7.509333-1.024 10.922667-8.533333 0.341333-17.066667 0.682667-25.6 1.365333v13.312h-11.946667v-12.629333c-12.970667 0.682667-26.624 1.706667-40.618666 2.730667l-1.365334-11.264c15.018667-0.682667 28.672-1.365333 41.984-2.048V901.12H37.546667v-10.24c4.096-5.802667 7.850667-11.946667 11.605333-18.773333H31.402667v-9.898667h22.869333c2.730667-5.461333 5.12-10.922667 7.850667-17.066667l11.605333 3.754667c-2.048 4.437333-4.437333 8.874667-6.485333 13.312H112.64v9.898667H62.122667c-3.413333 6.485333-7.168 12.629333-10.922667 18.773333z m5.12 50.176h115.370667v70.997333h-12.288v-7.509333H68.266667v7.509333h-12.288v-70.997333z m103.082667 10.24H68.266667v16.384h91.136v-16.384zM68.266667 993.962667h91.136v-16.725334H68.266667v16.725334z m53.589333-134.485334c22.528-0.341333 45.056-2.048 67.242667-5.802666l3.754666 10.922666c-21.162667 2.389333-40.96 4.096-59.733333 4.778667v21.162667h62.122667v9.898666h-24.234667v35.157334h-11.946667v-35.157334h-27.306666c-2.048 15.36-7.509333 27.989333-16.384 37.888-2.730667-2.730667-5.802667-5.461333-9.557334-8.533333 10.24-10.24 15.36-25.258667 15.36-44.032v-26.282667zM298.325333 912.725333h66.218667c2.389333-11.605333 3.754667-24.576 4.096-38.912H311.296v-12.970666h136.874667v12.970666h-65.194667c-0.682667 14.336-2.389333 27.306667-4.437333 38.912h82.602666v12.970667h-85.333333c-8.533333 37.546667-32.085333 66.901333-70.656 87.722667-2.389333-3.754667-5.461333-7.850667-9.216-11.946667 33.450667-16.725333 55.296-41.984 65.536-75.776H298.325333v-12.970667z m86.357334 24.917334h13.653333v44.032c0 8.874667 4.096 13.312 12.288 13.312h23.210667c7.509333 0 11.946667-3.413333 12.970666-9.898667 1.024-6.485333 1.706667-14.677333 2.048-24.917333 4.437333 1.706667 8.874667 3.072 14.336 4.778666-1.024 10.922667-2.048 19.456-3.072 24.917334-1.365333 11.264-9.557333 16.725333-23.893333 16.725333h-29.354667c-14.677333 0-22.186667-7.850667-22.186666-23.210667v-45.738666zM562.517333 944.128h25.6c2.389333-4.096 4.778667-8.533333 7.168-12.970667l12.288 3.754667c-1.706667 3.072-3.754667 6.144-5.461333 9.216h41.301333v10.922667c-4.437333 10.922667-10.581333 20.48-19.456 28.672 6.144 2.730667 12.629333 5.802667 18.773334 8.533333l-7.509334 11.605333c-6.826667-3.754667-14.336-7.850667-21.845333-11.605333-12.629333 8.874667-28.672 16.042667-48.128 21.504l-5.802667-11.605333c16.384-3.754667 30.378667-8.874667 41.642667-16.042667-9.557333-4.778667-19.797333-9.898667-30.378667-15.018667 3.754667-5.12 7.168-10.581333 10.581334-16.042666h-19.114667v-10.922667z m1.706667-57.344h38.912v-37.546667h12.629333v37.546667h32.426667v10.922667h-32.426667v10.24l5.12-5.802667c10.581333 7.509333 19.114667 14.336 26.282667 20.138667l-8.192 9.216c-6.144-5.802667-13.994667-12.288-23.210667-19.456v19.114666h-12.629333v-23.552c-10.24 10.581333-22.186667 19.797333-35.84 27.989334-2.048-3.072-4.437333-6.485333-7.168-10.24 14.336-7.509333 27.306667-16.725333 38.912-27.648h-34.816v-10.922667z m4.437333-25.941333l9.557334-6.485334c5.12 6.144 10.24 12.629333 15.701333 19.797334l-10.581333 7.509333c-4.778667-7.509333-9.557333-14.336-14.677334-20.821333z m19.114667 106.496c7.850667 3.413333 16.042667 7.168 24.576 11.264 7.850667-6.485333 13.994667-14.336 18.090667-23.210667h-35.157334c-2.389333 4.096-4.778667 8.192-7.509333 11.946667z m52.565333-114.005334l10.581334 6.826667c-6.144 8.192-12.288 15.36-18.432 22.186667-2.730667-2.389333-5.461333-4.437333-9.216-7.168 5.802667-6.485333 11.605333-13.994667 17.066666-21.845334z m30.72-5.802666l13.653334 2.048c-2.389333 10.922667-5.12 20.821333-8.192 30.378666h51.541333v11.264h-10.581333c-2.730667 32.768-9.898667 58.709333-21.504 78.165334 9.216 12.288 20.821333 22.186667 34.816 30.037333-3.754667 4.778667-6.485333 9.216-9.216 13.312-13.653333-8.874667-25.258667-19.456-34.133334-31.402667-10.24 12.629333-22.528 23.893333-36.864 33.109334-2.389333-3.072-5.802667-6.826667-9.557333-10.581334 15.701333-10.24 28.672-21.845333 38.229333-34.816-9.216-15.701333-15.018667-33.792-18.090666-53.930666-2.389333 4.096-4.778667 7.850667-7.509334 11.605333-2.389333-3.072-5.12-6.826667-8.533333-10.581333 12.970667-19.114667 21.504-41.642667 25.941333-68.608z m32.768 43.690666H672.426667c-0.682667 1.365333-1.024 2.730667-1.706667 4.096 2.048 23.552 7.509333 44.032 16.725333 60.757334 8.874667-16.042667 14.336-37.546667 16.384-64.853334zM826.368 936.96c7.850667-2.048 15.701333-4.437333 23.210667-6.485333v-38.229334h-21.162667v-11.946666h21.162667v-32.085334h12.629333v32.085334h18.432v11.946666h-18.432v34.474667c5.461333-1.706667 10.581333-3.413333 15.701333-5.12 0 5.12 0.341333 9.216 1.024 12.970667-5.802667 1.706667-11.264 3.754667-16.725333 5.461333v50.517333c0 12.629333-5.461333 19.114667-16.725333 19.114667h-15.36c-0.341333-4.437333-1.024-9.216-2.048-13.994667 6.144 0.682667 10.922667 1.024 14.336 1.024 5.12 0 7.509333-2.730667 7.509333-8.533333v-44.032c-7.850667 2.730667-15.018667 5.12-21.504 7.509333l-2.048-14.677333z m75.776 17.066667h34.816v-21.162667H897.706667c-1.365333 34.474667-9.216 60.757333-23.893334 79.530667-2.730667-3.413333-5.802667-6.826667-9.216-10.581334 13.994667-17.066667 21.162667-43.690667 21.162667-79.189333v-65.194667h99.669333v48.469334h-12.288v-5.12H897.706667v20.821333h39.253333v-17.408h12.288v17.408h44.714667v11.264H948.906667v21.162667h35.157333v56.661333h-12.288v-9.557333h-57.685333v9.557333h-12.288v-56.661333z m70.997333-85.674667H897.706667v21.162667h75.434666v-21.162667z m-1.024 96.597333h-57.685333v24.917334h57.685333v-24.917334z" p-id="721" fill="#8a8a8a"></path></svg>