<?xml version="1.0" standalone="no"?><!DOCTYPE svg PUBLIC "-//W3C//DTD SVG 1.1//EN" "http://www.w3.org/Graphics/SVG/1.1/DTD/svg11.dtd"><svg t="1576052351928" class="icon" viewBox="0 0 1024 1024" version="1.1" xmlns="http://www.w3.org/2000/svg" p-id="3362" xmlns:xlink="http://www.w3.org/1999/xlink" width="200" height="200"><defs><style type="text/css"></style></defs><path d="M512 938.666667a426.666667 426.666667 0 1 1 426.666667-426.666667 426.666667 426.666667 0 0 1-426.666667 426.666667z m0-789.333334a362.666667 362.666667 0 1 0 362.666667 362.666667A362.666667 362.666667 0 0 0 512 149.333333z" p-id="3363" fill="#8a8a8a"></path><path d="M500.053333 579.84a32 32 0 0 1-32-32v-203.306667a32 32 0 0 1 64 0v203.306667a32 32 0 0 1-32 32z" p-id="3364" fill="#8a8a8a"></path><path d="M704 579.84h-203.946667a32 32 0 0 1 0-64H704a32 32 0 0 1 0 64z" p-id="3365" fill="#8a8a8a"></path></svg>